<svg viewBox="0 0 175 175" fill="none" xmlns="http://www.w3.org/2000/svg"><path d="M87.5 175a87.5 87.5 0 100-175 87.5 87.5 0 000 175z" fill="#FFDA45"/><path d="M71 112.38h33.02v14.63H71v-14.63z" fill="#2F4859"/><path d="M131.66 46.1H43.34a3.39 3.39 0 00-3.39 3.4v62.64a3.39 3.39 0 003.39 3.39h88.32a3.39 3.39 0 003.4-3.4V49.5a3.39 3.39 0 00-3.4-3.39z" fill="#3A556A"/><path d="M45.77 51.93h83.46v51.94H45.77V51.93z" fill="#309"/><path d="M110.25 125.11h-45.5a1.9 1.9 0 00-1.24 3.18c.32.35.77.57 1.24.6h45.5a1.9 1.9 0 001.74-1.88 1.9 1.9 0 00-1.74-1.9z" fill="#3A556A"/><path d="M87.5 106.97a2.73 2.73 0 00-2.53 1.69 2.73 2.73 0 102.53-1.7z" fill="#2F4859"/><path d="M64.14 64.59h-.81v-5.16c-.24.22-.5.4-.77.56a4.8 4.8 0 01-.86.41v-.78a4.8 4.8 0 001.2-.76c.28-.25.53-.55.72-.88h.52v6.6zm3.56-3.26a6.33 6.33 0 01.24-1.87c.13-.42.37-.8.7-1.1.35-.26.78-.4 1.21-.38.32 0 .64.07.93.2a2 2 0 01.66.62c.18.3.32.64.4.99.11.5.16 1.02.14 1.54a5.9 5.9 0 01-.23 1.88 2.18 2.18 0 01-.66 1.05 1.8 1.8 0 01-1.19.4 1.83 1.83 0 01-1.5-.69 4.4 4.4 0 01-.7-2.64zm.84 0c-.07.74.06 1.49.37 2.16a1.12 1.12 0 00.94.54 1.1 1.1 0 00.93-.54 4.1 4.1 0 00.38-2.16 4 4 0 00-.38-2.14 1.1 1.1 0 00-1.45-.43 1.04 1.04 0 00-.38.36 4.2 4.2 0 00-.41 2.21zm9.39 3.26h-.8v-5.16a4.67 4.67 0 01-1.62.97v-.78a4.72 4.72 0 001.18-.76c.29-.25.53-.55.72-.88h.52v6.6zm6.97 0h-.8v-5.16c-.24.22-.5.4-.77.56a4.72 4.72 0 01-.85.41v-.78a4.8 4.8 0 001.2-.76c.28-.25.52-.54.7-.88h.52v6.6zm3.57-3.26a5.87 5.87 0 01.25-1.87c.13-.42.37-.8.7-1.1.35-.26.77-.4 1.2-.38.32 0 .64.07.93.2.27.16.5.37.67.62.18.31.31.64.4.99.11.5.16 1.02.14 1.54a6.33 6.33 0 01-.23 1.88 2.28 2.28 0 01-.7 1.09 2 2 0 01-2.74-.29 4.3 4.3 0 01-.62-2.68zm.83 0a4.1 4.1 0 00.39 2.16 1.1 1.1 0 00.93.54 1.15 1.15 0 00.94-.54 4.2 4.2 0 00.38-2.16 4.1 4.1 0 00-.34-2.14 1.12 1.12 0 00-.94-.55 1.04 1.04 0 00-.9.48 4.1 4.1 0 00-.45 2.21zm9.47 3.26h-.82v-5.16a3.73 3.73 0 01-.77.56 4.72 4.72 0 01-.85.41v-.78a4.8 4.8 0 001.2-.76c.28-.25.52-.54.7-.88h.54v6.6zm3.56-3.26a5.9 5.9 0 01.2-1.87c.14-.42.38-.8.72-1.1a1.82 1.82 0 011.2-.38 1.97 1.97 0 01.92.2c.27.16.5.37.67.62.18.31.32.64.4.99.11.5.16 1.02.15 1.54a5.9 5.9 0 01-.24 1.88 2.27 2.27 0 01-.7 1.09 1.8 1.8 0 01-1.2.4 1.83 1.83 0 01-1.5-.69 4.32 4.32 0 01-.62-2.68zm.82 0a4.2 4.2 0 00.39 2.16 1.1 1.1 0 001.87 0 4.2 4.2 0 00.38-2.16 4.1 4.1 0 00-.38-2.14 1.13 1.13 0 00-.94-.55 1.04 1.04 0 00-.9.48 4.1 4.1 0 00-.42 2.21zm9.46 3.26h-.8v-5.16c-.24.21-.5.4-.77.56a4.81 4.81 0 01-.86.41v-.78a4.8 4.8 0 001.2-.76c.28-.25.53-.55.72-.88h.51v6.6zM64.13 75.6h-.8v-5.15a4.63 4.63 0 01-.77.55 4.96 4.96 0 01-.86.43v-.78c.43-.2.83-.47 1.2-.78.28-.25.53-.54.71-.88h.52v6.6zm3.67-3.25a6.43 6.43 0 01.23-1.88 2.45 2.45 0 01.73-1.1c.33-.26.76-.4 1.19-.38a1.87 1.87 0 01.92.22c.27.15.5.36.66.62a3 3 0 01.41.97 6.6 6.6 0 01.15 1.56 5.77 5.77 0 01-.24 1.85 2.3 2.3 0 01-.72 1.11 2.01 2.01 0 01-2.73-.3 4.39 4.39 0 01-.6-2.67zm.83 0a4.17 4.17 0 00.37 2.15 1.12 1.12 0 00.94.55 1.1 1.1 0 00.93-.55 4 4 0 00.39-2.15 4.1 4.1 0 00-.39-2.16 1.1 1.1 0 00-.94-.53 1.02 1.02 0 00-.89.47 4.3 4.3 0 00-.4 2.23zm6.2 0a6 6 0 01.23-1.88 2.42 2.42 0 01.7-1.1c.35-.26.77-.4 1.2-.38a1.84 1.84 0 011.6.84c.18.3.31.62.4.97a5.97 5.97 0 01.15 1.56 6.24 6.24 0 01-.24 1.85 2.4 2.4 0 01-.7 1.11c-.35.27-.78.4-1.21.38a1.8 1.8 0 01-1.5-.68 4.3 4.3 0 01-.63-2.67zm.82 0a4.1 4.1 0 00.38 2.15 1.1 1.1 0 00.93.55 1.1 1.1 0 00.94-.55 4.1 4.1 0 00.38-2.15 4.2 4.2 0 00-.35-2.16 1.15 1.15 0 00-.94-.53 1.02 1.02 0 00-.9.47 4.1 4.1 0 00-.44 2.23zm6.19 0a5.95 5.95 0 01.2-1.88 2.42 2.42 0 01.7-1.1c.34-.26.76-.4 1.2-.38.31 0 .64.07.92.22.27.14.5.35.66.62.19.3.33.62.4.97.14.5.2 1.03.21 1.56a6.23 6.23 0 01-.23 1.85 2.4 2.4 0 01-.71 1.11c-.34.27-.77.4-1.2.38a1.76 1.76 0 01-1.5-.68 4.3 4.3 0 01-.65-2.67zm.83 0a4 4 0 00.39 2.15 1.1 1.1 0 00.93.55 1.12 1.12 0 00.94-.55 4.17 4.17 0 00.37-2.15 4.24 4.24 0 00-.37-2.16 1.15 1.15 0 00-.96-.53 1 1 0 00-.87.47 4.1 4.1 0 00-.43 2.23zm9.55 3.25h-.81v-5.15a3.7 3.7 0 01-.77.55c-.26.17-.55.31-.84.43v-.78c.43-.2.83-.47 1.19-.78a2.8 2.8 0 00.7-.88h.53v6.6zm3.67-3.25a6.42 6.42 0 01.24-1.88 2.42 2.42 0 01.7-1.1c.35-.26.78-.4 1.21-.38a1.82 1.82 0 011.59.84c.18.3.32.63.4.97a6.74 6.74 0 01.14 1.56 5.83 5.83 0 01-.23 1.85 2.4 2.4 0 01-.7 1.11 2.01 2.01 0 01-2.74-.3 4.3 4.3 0 01-.6-2.67zm.82 0a4.1 4.1 0 00.36 2.15 1.1 1.1 0 00.94.55 1.1 1.1 0 00.93-.55 4.1 4.1 0 00.39-2.15 4.2 4.2 0 00-.39-2.16 1.12 1.12 0 00-.91-.47 1.02 1.02 0 00-.9.46 4.26 4.26 0 00-.41 2.18zm6.2 0a5.93 5.93 0 01.24-1.88 2.41 2.41 0 01.71-1.1c.34-.26.76-.4 1.2-.38.32 0 .64.07.92.22.28.14.5.35.66.62.2.3.33.62.41.97.12.5.17 1.03.15 1.56a6.25 6.25 0 01-.23 1.85 2.4 2.4 0 01-.71 1.11c-.35.27-.77.4-1.2.38a1.76 1.76 0 01-1.5-.68 4.3 4.3 0 01-.65-2.67zm.83 0a4 4 0 00.38 2.15 1.09 1.09 0 00.93.55 1.12 1.12 0 00.95-.55c.3-.67.44-1.4.37-2.15a4.25 4.25 0 00-.37-2.16 1.14 1.14 0 00-.95-.53 1 1 0 00-.88.47 4.1 4.1 0 00-.43 2.23zm9.56 3.25h-.82v-5.15a3.72 3.72 0 01-.77.55c-.26.17-.55.31-.84.43v-.78c.42-.2.82-.47 1.18-.78a2.83 2.83 0 00.72-.88h.53v6.6zM64.14 86.64h-.81v-5.16a4.63 4.63 0 01-.77.56 4.81 4.81 0 01-.86.41v-.78a4.8 4.8 0 001.2-.76 3.31 3.31 0 00.72-.88h.52v6.6zm3.56-3.24a6.33 6.33 0 01.24-1.87 2.35 2.35 0 01.7-1.1c.35-.26.78-.4 1.2-.38.33 0 .65.06.94.2.27.15.5.36.66.62.18.3.32.64.4.98a6.7 6.7 0 01.14 1.55 5.9 5.9 0 01-.23 1.87 2.26 2.26 0 01-.71 1.1 1.8 1.8 0 01-1.2.4 1.83 1.83 0 01-1.48-.64 4.4 4.4 0 01-.66-2.73zm.84 0a4.24 4.24 0 00.37 2.16 1.12 1.12 0 00.94.53 1.1 1.1 0 00.93-.53 6.29 6.29 0 000-4.32 1.1 1.1 0 00-.94-.53 1.04 1.04 0 00-.9.47 4.2 4.2 0 00-.4 2.22zm9.39 3.24h-.8v-5.16a4.67 4.67 0 01-1.62.97v-.78a4.72 4.72 0 001.18-.76 3.31 3.31 0 00.72-.88h.52v6.6zm3.62-3.24a6.33 6.33 0 01.24-1.88 2.37 2.37 0 01.72-1.09c.34-.26.76-.4 1.19-.38.32 0 .64.06.93.2.27.15.5.36.66.62.19.3.33.63.4.98.12.51.17 1.03.16 1.55a5.87 5.87 0 01-.25 1.87 2.25 2.25 0 01-.71 1.1 1.8 1.8 0 01-1.2.4 1.79 1.79 0 01-1.48-.7 4.3 4.3 0 01-.66-2.67zm.84 0c-.07.74.06 1.48.37 2.16a1.15 1.15 0 00.94.53 1.1 1.1 0 00.93-.53 6.29 6.29 0 000-4.32 1.1 1.1 0 00-.94-.53 1.04 1.04 0 00-.9.47 4.2 4.2 0 00-.4 2.22zm9.44 3.24h-.8v-5.16a4.1 4.1 0 01-.8.55c-.27.16-.55.3-.84.41v-.78a4.48 4.48 0 001.9-1.64h.52l.02 6.62zm3.57-3.24a5.87 5.87 0 01.3-1.89c.13-.43.37-.8.71-1.1.34-.26.76-.4 1.2-.37.32-.01.63.06.92.2.27.15.5.36.66.62.2.3.33.63.4.98.1.51.14 1.04.1 1.56a5.87 5.87 0 01-.24 1.87 2.26 2.26 0 01-.71 1.1c-.34.27-.76.4-1.2.4a1.79 1.79 0 01-1.48-.7 4.3 4.3 0 01-.66-2.67zm.84 0c-.07.74.06 1.49.38 2.16a1.08 1.08 0 001.86 0 6.29 6.29 0 000-4.32 1.1 1.1 0 00-.94-.53 1.04 1.04 0 00-.9.47 4.2 4.2 0 00-.4 2.22zm9.44 3.24h-.8v-5.16a4.17 4.17 0 01-.77.56 5.2 5.2 0 01-.85.41v-.78a4.8 4.8 0 001.2-.76c.28-.25.52-.54.7-.88h.52v6.6zm6.94 0h-.81v-5.16c-.24.22-.5.4-.77.56a4.81 4.81 0 01-.86.41v-.78a4.81 4.81 0 001.2-.76c.28-.25.53-.54.72-.88h.52v6.6zM64.14 97.66h-.81v-5.14a4.64 4.64 0 01-.77.55 4.96 4.96 0 01-.86.42v-.78c.43-.2.83-.47 1.2-.78.28-.25.53-.54.72-.88h.52v6.6zm3.66-3.24a6.43 6.43 0 01.23-1.89 2.45 2.45 0 01.73-1.1c.33-.26.76-.4 1.19-.37a1.76 1.76 0 011.59.83c.18.3.32.62.4.97.11.51.16 1.03.15 1.56a5.77 5.77 0 01-.24 1.86 2.3 2.3 0 01-.71 1.1 2.01 2.01 0 01-2.74-.3 4.39 4.39 0 01-.6-2.66zm.83 0a4.17 4.17 0 00.37 2.14 1.12 1.12 0 00.95.55 1.1 1.1 0 00.93-.55 4 4 0 00.38-2.14 4.1 4.1 0 00-.38-2.16 1.1 1.1 0 00-.95-.53 1.02 1.02 0 00-.89.46 4.3 4.3 0 00-.4 2.23zm6.2 0a6 6 0 01.23-1.89 2.42 2.42 0 01.7-1.1c.35-.26.77-.4 1.2-.37a1.83 1.83 0 011.6.83c.18.3.32.63.4.97.11.51.16 1.03.15 1.56a6.23 6.23 0 01-.24 1.86 2.4 2.4 0 01-.7 1.1c-.35.27-.78.4-1.21.39a1.8 1.8 0 01-1.5-.7 4.3 4.3 0 01-.63-2.65zm.82 0a4.1 4.1 0 00.38 2.14 1.1 1.1 0 00.93.55 1.1 1.1 0 00.94-.55 4.1 4.1 0 00.39-2.14 4.2 4.2 0 00-.36-2.16 1.15 1.15 0 00-.94-.53 1.02 1.02 0 00-.9.46 4.1 4.1 0 00-.44 2.23zm9.55 3.24h-.8v-5.14a4.64 4.64 0 01-.77.55 4.96 4.96 0 01-.86.42v-.78a4.97 4.97 0 001.19-.78 3.1 3.1 0 00.72-.88h.52v6.6zm3.67-3.24a5.95 5.95 0 01.24-1.89c.13-.42.38-.8.71-1.1.34-.26.76-.4 1.2-.37a1.77 1.77 0 011.59.83c.18.3.32.62.4.97.11.51.16 1.03.15 1.56a5.77 5.77 0 01-.2 1.86 2.3 2.3 0 01-.7 1.1c-.34.27-.76.4-1.2.39a1.75 1.75 0 01-1.48-.69 4.3 4.3 0 01-.71-2.66zm.83 0a4.17 4.17 0 00.37 2.14 1.12 1.12 0 00.94.55 1.1 1.1 0 00.93-.55 4 4 0 00.39-2.14 4.1 4.1 0 00-.39-2.16 1.1 1.1 0 00-.94-.53 1.02 1.02 0 00-.89.46 4.3 4.3 0 00-.4 2.23zm6.2 0a6.42 6.42 0 01.23-1.89 2.42 2.42 0 01.7-1.1c.35-.26.78-.4 1.21-.37.32-.01.64.06.92.21.27.14.5.36.67.62.18.3.32.63.4.97a6.74 6.74 0 01.14 1.56 5.83 5.83 0 01-.23 1.86 2.4 2.4 0 01-.7 1.1 2.01 2.01 0 01-2.74-.3 4.3 4.3 0 01-.6-2.66zm.81 0a4.1 4.1 0 00.36 2.14 1.1 1.1 0 00.94.55 1.1 1.1 0 00.93-.55 4.1 4.1 0 00.39-2.14 4.2 4.2 0 00-.39-2.16 1.12 1.12 0 00-1.44-.42 1.02 1.02 0 00-.39.35 4.27 4.27 0 00-.4 2.23zm6.2 0a5.93 5.93 0 01.24-1.89c.14-.42.38-.8.72-1.1.33-.26.76-.4 1.18-.37a1.83 1.83 0 011.59.83c.2.3.33.62.41.97a6 6 0 01.15 1.56 6.25 6.25 0 01-.23 1.86 2.4 2.4 0 01-.71 1.1c-.35.27-.77.4-1.2.39a1.76 1.76 0 01-1.5-.69 4.3 4.3 0 01-.65-2.66zm.83 0a4 4 0 00.39 2.14 1.09 1.09 0 00.92.55 1.12 1.12 0 00.95-.55 4.17 4.17 0 00.37-2.14 4.25 4.25 0 00-.37-2.16 1.15 1.15 0 00-.95-.53 1 1 0 00-.88.46 4.1 4.1 0 00-.43 2.23zm9.56 3.24h-.82v-5.14a3.72 3.72 0 01-.77.55c-.26.16-.55.3-.84.42v-.78c.43-.2.83-.47 1.19-.78a2.83 2.83 0 00.7-.88h.54v6.6z" fill="#E1E6E9"/><path d="M88.47 64.78A13.13 13.13 0 10101.6 77.9a13.13 13.13 0 00-3.84-9.28 13.11 13.11 0 00-9.29-3.84z" fill="#FFDA45"/><path d="M87.5 82.99l-4.77-4.77 1.94-1.93 2.83 2.83 5.95-5.95 1.94 1.93-7.89 7.89z" fill="#309"/></svg>