<svg xmlns="http://www.w3.org/2000/svg" xmlns:xlink="http://www.w3.org/1999/xlink"><defs><clipPath id="clip0"><path fill="#fff" d="M0 0h85v85H0z"/></clipPath></defs><symbol id="icon-fb" viewBox="0 0 60 60"><path d="M30 0C13.432 0 0 13.432 0 30c0 14.86 10.816 27.167 24.997 29.55V36.259H17.76v-8.381h7.237v-6.18c0-7.171 4.38-11.079 10.777-11.079 3.064 0 5.697.229 6.462.33v7.494l-4.437.002c-3.479 0-4.15 1.653-4.15 4.08v5.348h8.3l-1.082 8.382h-7.218V59.75C48.493 57.944 60 45.324 60 29.992 60 13.432 46.568 0 30 0z" fill="#fff"/></symbol><symbol id="icon-heart" viewBox="0 0 85 71"><path d="M61.88.707C74.623.769 84.938 11.084 85 23.827c0 23.346-42.5 46.467-42.5 46.467S0 46.834 0 23.827C0 11.058 10.351.707 23.12.707A22.893 22.893 0 0142.5 11.133 23.12 23.12 0 0161.88.707z" fill="#FFDA45"/></symbol><symbol id="icon-in" viewBox="0 0 60 60"><path d="M30 0C13.434 0 0 13.434 0 30c0 16.566 13.434 30 30 30 16.566 0 30-13.434 30-30C60 13.434 46.566 0 30 0zm-8.718 45.352h-7.306V23.37h7.306v21.982zM17.63 20.369h-.047c-2.452 0-4.038-1.688-4.038-3.797 0-2.157 1.634-3.799 4.134-3.799 2.5 0 4.037 1.642 4.085 3.799 0 2.109-1.586 3.797-4.134 3.797zm29.999 24.983h-7.306v-11.76c0-2.955-1.058-4.97-3.701-4.97-2.019 0-3.22 1.359-3.749 2.671-.193.47-.24 1.126-.24 1.783v12.276h-7.306s.095-19.92 0-21.982h7.306v3.113c.97-1.498 2.708-3.629 6.584-3.629 4.807 0 8.412 3.142 8.412 9.894v12.604z" fill="#fff"/></symbol><symbol id="icon-inst" viewBox="0 0 60 60"><path d="M35.742 30a5.742 5.742 0 11-11.484 0 5.742 5.742 0 0111.484 0z" fill="#fff"/><path d="M43.429 19.84a5.337 5.337 0 00-1.289-1.98 5.333 5.333 0 00-1.98-1.289c-.607-.236-1.52-.516-3.199-.593-1.817-.082-2.361-.1-6.961-.1s-5.145.017-6.961.1c-1.68.077-2.592.357-3.199.593a5.33 5.33 0 00-1.98 1.289 5.34 5.34 0 00-1.29 1.98c-.235.608-.516 1.52-.592 3.2-.083 1.816-.101 2.36-.101 6.96s.018 5.145.1 6.962c.077 1.68.358 2.591.593 3.198a5.34 5.34 0 001.29 1.981 5.335 5.335 0 001.98 1.289c.607.236 1.52.516 3.199.593 1.816.083 2.36.1 6.96.1s5.146-.017 6.962-.1c1.68-.077 2.592-.357 3.199-.593a5.705 5.705 0 003.269-3.27c.236-.607.516-1.519.593-3.198.083-1.817.1-2.362.1-6.961 0-4.6-.017-5.145-.1-6.962-.076-1.68-.357-2.591-.593-3.199zm-13.43 19.006a8.846 8.846 0 110-17.692 8.846 8.846 0 110 17.692zm9.196-15.974a2.067 2.067 0 110-4.135 2.067 2.067 0 010 4.135z" fill="#fff"/><path d="M30 0C13.434 0 0 13.434 0 30c0 16.566 13.434 30 30 30 16.566 0 30-13.434 30-30C60 13.434 46.566 0 30 0zm17.123 37.102c-.084 1.834-.375 3.086-.801 4.182a8.808 8.808 0 01-5.038 5.038c-1.096.426-2.348.717-4.181.8-1.837.084-2.424.105-7.103.105-4.678 0-5.265-.02-7.102-.104-1.834-.084-3.086-.375-4.181-.801a8.44 8.44 0 01-3.052-1.987 8.445 8.445 0 01-1.987-3.051c-.425-1.096-.717-2.348-.8-4.181-.085-1.838-.105-2.425-.105-7.103s.02-5.265.104-7.102c.084-1.834.375-3.086.8-4.182a8.44 8.44 0 011.988-3.05 8.44 8.44 0 013.051-1.988c1.096-.426 2.348-.717 4.182-.8 1.837-.084 2.424-.105 7.102-.105 4.678 0 5.265.02 7.102.105 1.834.083 3.086.374 4.182.8a8.445 8.445 0 013.051 1.987 8.44 8.44 0 011.987 3.051c.426 1.096.717 2.348.801 4.182.084 1.837.104 2.424.104 7.102 0 4.678-.02 5.265-.104 7.102z" fill="#fff"/></symbol><symbol id="icon-js" viewBox="0 0 175 175"><path d="M175 87.5c0 11.4-2.179 22.289-6.147 32.279a86.95 86.95 0 01-7.839 15.192 87.633 87.633 0 01-13.518 16.218 87.554 87.554 0 01-9.582 7.836C123.664 169.089 106.275 175 87.5 175c-18.775 0-36.164-5.911-50.414-15.975a87.448 87.448 0 01-11.804-10.004C9.65 133.218 0 111.482 0 87.5s9.65-45.718 25.282-61.521a87.69 87.69 0 0112.554-10.525C51.943 5.707 69.053 0 87.5 0s35.557 5.707 49.664 15.454a86.74 86.74 0 019.772 7.835 87.62 87.62 0 0114.078 16.74 87.042 87.042 0 017.84 15.192C172.821 65.211 175 76.101 175 87.5z" fill="#FFDA45"/><path d="M133.66 79.628c-2.436-7.063-12.422-7.063-14.37-1.217-1.948 5.845 4.628 9.254 14.857 12.664s16.561 12.421 15.344 20.458c-1.218 8.037-4.628 18.51-24.842 18.51-12.634 0-19.655-7.897-23.145-13.819l11.454-6.883s3.897 8.281 11.203 8.281c7.307 0 10.229-2.435 10.229-8.037 0-6.819-23.624-9.255-27.277-20.945-3.653-11.69 1.218-28.252 18.266-27.034 10.655.761 16.649 5.993 19.646 9.81l-11.365 8.212zM80.566 62.824v46.761c0 5.602-4.87 8.525-9.742 7.55-4.87-.974-7.063-6.819-7.063-6.819l-11.203 7.55s2.436 11.203 17.78 12.177c15.343.975 24.11-8.28 24.11-16.074V62.824H80.566z" fill="#309"/><path d="M25.282 15.454V149.02a87.521 87.521 0 0011.804 10.004h100.828a87.66 87.66 0 009.583-7.836H33.117v-127.9h127.897v111.683a86.995 86.995 0 007.839-15.193V15.454H25.282z" fill="#309"/><path d="M30.029 129.8c7.666 0 13.882-6.215 13.882-13.882s-6.216-13.882-13.882-13.882c-7.667 0-13.883 6.215-13.883 13.882S22.363 129.8 30.03 129.8z" fill="#3F4A43"/></symbol><symbol id="icon-laptop" viewBox="0 0 175 175"><path d="M87.5 175a87.5 87.5 0 100-175 87.5 87.5 0 000 175z" fill="#FFDA45"/><path d="M71 112.38h33.02v14.63H71v-14.63z" fill="#2F4859"/><path d="M131.66 46.1H43.34a3.39 3.39 0 00-3.39 3.4v62.64a3.39 3.39 0 003.39 3.39h88.32a3.39 3.39 0 003.4-3.4V49.5a3.39 3.39 0 00-3.4-3.39z" fill="#3A556A"/><path d="M45.77 51.93h83.46v51.94H45.77V51.93z" fill="#309"/><path d="M110.25 125.11h-45.5a1.9 1.9 0 00-1.24 3.18c.32.35.77.57 1.24.6h45.5a1.9 1.9 0 001.74-1.88 1.9 1.9 0 00-1.74-1.9z" fill="#3A556A"/><path d="M87.5 106.97a2.73 2.73 0 00-2.53 1.69 2.73 2.73 0 102.53-1.7z" fill="#2F4859"/><path d="M64.14 64.59h-.81v-5.16c-.24.22-.5.4-.77.56a4.8 4.8 0 01-.86.41v-.78a4.8 4.8 0 001.2-.76c.28-.25.53-.55.72-.88h.52v6.6zm3.56-3.26a6.33 6.33 0 01.24-1.87c.13-.42.37-.8.7-1.1.35-.26.78-.4 1.21-.38.32 0 .64.07.93.2a2 2 0 01.66.62c.18.3.32.64.4.99.11.5.16 1.02.14 1.54a5.9 5.9 0 01-.23 1.88 2.18 2.18 0 01-.66 1.05 1.8 1.8 0 01-1.19.4 1.83 1.83 0 01-1.5-.69 4.4 4.4 0 01-.7-2.64zm.84 0c-.07.74.06 1.49.37 2.16a1.12 1.12 0 00.94.54 1.1 1.1 0 00.93-.54 4.1 4.1 0 00.38-2.16 4 4 0 00-.38-2.14 1.1 1.1 0 00-1.45-.43 1.04 1.04 0 00-.38.36 4.2 4.2 0 00-.41 2.21zm9.39 3.26h-.8v-5.16a4.67 4.67 0 01-1.62.97v-.78a4.72 4.72 0 001.18-.76c.29-.25.53-.55.72-.88h.52v6.6zm6.97 0h-.8v-5.16c-.24.22-.5.4-.77.56a4.72 4.72 0 01-.85.41v-.78a4.8 4.8 0 001.2-.76c.28-.25.52-.54.7-.88h.52v6.6zm3.57-3.26a5.87 5.87 0 01.25-1.87c.13-.42.37-.8.7-1.1.35-.26.77-.4 1.2-.38.32 0 .64.07.93.2.27.16.5.37.67.62.18.31.31.64.4.99.11.5.16 1.02.14 1.54a6.33 6.33 0 01-.23 1.88 2.28 2.28 0 01-.7 1.09 2 2 0 01-2.74-.29 4.3 4.3 0 01-.62-2.68zm.83 0a4.1 4.1 0 00.39 2.16 1.1 1.1 0 00.93.54 1.15 1.15 0 00.94-.54 4.2 4.2 0 00.38-2.16 4.1 4.1 0 00-.34-2.14 1.12 1.12 0 00-.94-.55 1.04 1.04 0 00-.9.48 4.1 4.1 0 00-.45 2.21zm9.47 3.26h-.82v-5.16a3.73 3.73 0 01-.77.56 4.72 4.72 0 01-.85.41v-.78a4.8 4.8 0 001.2-.76c.28-.25.52-.54.7-.88h.54v6.6zm3.56-3.26a5.9 5.9 0 01.2-1.87c.14-.42.38-.8.72-1.1a1.82 1.82 0 011.2-.38 1.97 1.97 0 01.92.2c.27.16.5.37.67.62.18.31.32.64.4.99.11.5.16 1.02.15 1.54a5.9 5.9 0 01-.24 1.88 2.27 2.27 0 01-.7 1.09 1.8 1.8 0 01-1.2.4 1.83 1.83 0 01-1.5-.69 4.32 4.32 0 01-.62-2.68zm.82 0a4.2 4.2 0 00.39 2.16 1.1 1.1 0 001.87 0 4.2 4.2 0 00.38-2.16 4.1 4.1 0 00-.38-2.14 1.13 1.13 0 00-.94-.55 1.04 1.04 0 00-.9.48 4.1 4.1 0 00-.42 2.21zm9.46 3.26h-.8v-5.16c-.24.21-.5.4-.77.56a4.81 4.81 0 01-.86.41v-.78a4.8 4.8 0 001.2-.76c.28-.25.53-.55.72-.88h.51v6.6zM64.13 75.6h-.8v-5.15a4.63 4.63 0 01-.77.55 4.96 4.96 0 01-.86.43v-.78c.43-.2.83-.47 1.2-.78.28-.25.53-.54.71-.88h.52v6.6zm3.67-3.25a6.43 6.43 0 01.23-1.88 2.45 2.45 0 01.73-1.1c.33-.26.76-.4 1.19-.38a1.87 1.87 0 01.92.22c.27.15.5.36.66.62a3 3 0 01.41.97 6.6 6.6 0 01.15 1.56 5.77 5.77 0 01-.24 1.85 2.3 2.3 0 01-.72 1.11 2.01 2.01 0 01-2.73-.3 4.39 4.39 0 01-.6-2.67zm.83 0a4.17 4.17 0 00.37 2.15 1.12 1.12 0 00.94.55 1.1 1.1 0 00.93-.55 4 4 0 00.39-2.15 4.1 4.1 0 00-.39-2.16 1.1 1.1 0 00-.94-.53 1.02 1.02 0 00-.89.47 4.3 4.3 0 00-.4 2.23zm6.2 0a6 6 0 01.23-1.88 2.42 2.42 0 01.7-1.1c.35-.26.77-.4 1.2-.38a1.84 1.84 0 011.6.84c.18.3.31.62.4.97a5.97 5.97 0 01.15 1.56 6.24 6.24 0 01-.24 1.85 2.4 2.4 0 01-.7 1.11c-.35.27-.78.4-1.21.38a1.8 1.8 0 01-1.5-.68 4.3 4.3 0 01-.63-2.67zm.82 0a4.1 4.1 0 00.38 2.15 1.1 1.1 0 00.93.55 1.1 1.1 0 00.94-.55 4.1 4.1 0 00.38-2.15 4.2 4.2 0 00-.35-2.16 1.15 1.15 0 00-.94-.53 1.02 1.02 0 00-.9.47 4.1 4.1 0 00-.44 2.23zm6.19 0a5.95 5.95 0 01.2-1.88 2.42 2.42 0 01.7-1.1c.34-.26.76-.4 1.2-.38.31 0 .64.07.92.22.27.14.5.35.66.62.19.3.33.62.4.97.14.5.2 1.03.21 1.56a6.23 6.23 0 01-.23 1.85 2.4 2.4 0 01-.71 1.11c-.34.27-.77.4-1.2.38a1.76 1.76 0 01-1.5-.68 4.3 4.3 0 01-.65-2.67zm.83 0a4 4 0 00.39 2.15 1.1 1.1 0 00.93.55 1.12 1.12 0 00.94-.55 4.17 4.17 0 00.37-2.15 4.24 4.24 0 00-.37-2.16 1.15 1.15 0 00-.96-.53 1 1 0 00-.87.47 4.1 4.1 0 00-.43 2.23zm9.55 3.25h-.81v-5.15a3.7 3.7 0 01-.77.55c-.26.17-.55.31-.84.43v-.78c.43-.2.83-.47 1.19-.78a2.8 2.8 0 00.7-.88h.53v6.6zm3.67-3.25a6.42 6.42 0 01.24-1.88 2.42 2.42 0 01.7-1.1c.35-.26.78-.4 1.21-.38a1.82 1.82 0 011.59.84c.18.3.32.63.4.97a6.74 6.74 0 01.14 1.56 5.83 5.83 0 01-.23 1.85 2.4 2.4 0 01-.7 1.11 2.01 2.01 0 01-2.74-.3 4.3 4.3 0 01-.6-2.67zm.82 0a4.1 4.1 0 00.36 2.15 1.1 1.1 0 00.94.55 1.1 1.1 0 00.93-.55 4.1 4.1 0 00.39-2.15 4.2 4.2 0 00-.39-2.16 1.12 1.12 0 00-.91-.47 1.02 1.02 0 00-.9.46 4.26 4.26 0 00-.41 2.18zm6.2 0a5.93 5.93 0 01.24-1.88 2.41 2.41 0 01.71-1.1c.34-.26.76-.4 1.2-.38.32 0 .64.07.92.22.28.14.5.35.66.62.2.3.33.62.41.97.12.5.17 1.03.15 1.56a6.25 6.25 0 01-.23 1.85 2.4 2.4 0 01-.71 1.11c-.35.27-.77.4-1.2.38a1.76 1.76 0 01-1.5-.68 4.3 4.3 0 01-.65-2.67zm.83 0a4 4 0 00.38 2.15 1.09 1.09 0 00.93.55 1.12 1.12 0 00.95-.55c.3-.67.44-1.4.37-2.15a4.25 4.25 0 00-.37-2.16 1.14 1.14 0 00-.95-.53 1 1 0 00-.88.47 4.1 4.1 0 00-.43 2.23zm9.56 3.25h-.82v-5.15a3.72 3.72 0 01-.77.55c-.26.17-.55.31-.84.43v-.78c.42-.2.82-.47 1.18-.78a2.83 2.83 0 00.72-.88h.53v6.6zM64.14 86.64h-.81v-5.16a4.63 4.63 0 01-.77.56 4.81 4.81 0 01-.86.41v-.78a4.8 4.8 0 001.2-.76 3.31 3.31 0 00.72-.88h.52v6.6zm3.56-3.24a6.33 6.33 0 01.24-1.87 2.35 2.35 0 01.7-1.1c.35-.26.78-.4 1.2-.38.33 0 .65.06.94.2.27.15.5.36.66.62.18.3.32.64.4.98a6.7 6.7 0 01.14 1.55 5.9 5.9 0 01-.23 1.87 2.26 2.26 0 01-.71 1.1 1.8 1.8 0 01-1.2.4 1.83 1.83 0 01-1.48-.64 4.4 4.4 0 01-.66-2.73zm.84 0a4.24 4.24 0 00.37 2.16 1.12 1.12 0 00.94.53 1.1 1.1 0 00.93-.53 6.29 6.29 0 000-4.32 1.1 1.1 0 00-.94-.53 1.04 1.04 0 00-.9.47 4.2 4.2 0 00-.4 2.22zm9.39 3.24h-.8v-5.16a4.67 4.67 0 01-1.62.97v-.78a4.72 4.72 0 001.18-.76 3.31 3.31 0 00.72-.88h.52v6.6zm3.62-3.24a6.33 6.33 0 01.24-1.88 2.37 2.37 0 01.72-1.09c.34-.26.76-.4 1.19-.38.32 0 .64.06.93.2.27.15.5.36.66.62.19.3.33.63.4.98.12.51.17 1.03.16 1.55a5.87 5.87 0 01-.25 1.87 2.25 2.25 0 01-.71 1.1 1.8 1.8 0 01-1.2.4 1.79 1.79 0 01-1.48-.7 4.3 4.3 0 01-.66-2.67zm.84 0c-.07.74.06 1.48.37 2.16a1.15 1.15 0 00.94.53 1.1 1.1 0 00.93-.53 6.29 6.29 0 000-4.32 1.1 1.1 0 00-.94-.53 1.04 1.04 0 00-.9.47 4.2 4.2 0 00-.4 2.22zm9.44 3.24h-.8v-5.16a4.1 4.1 0 01-.8.55c-.27.16-.55.3-.84.41v-.78a4.48 4.48 0 001.9-1.64h.52l.02 6.62zm3.57-3.24a5.87 5.87 0 01.3-1.89c.13-.43.37-.8.71-1.1.34-.26.76-.4 1.2-.37.32-.01.63.06.92.2.27.15.5.36.66.62.2.3.33.63.4.98.1.51.14 1.04.1 1.56a5.87 5.87 0 01-.24 1.87 2.26 2.26 0 01-.71 1.1c-.34.27-.76.4-1.2.4a1.79 1.79 0 01-1.48-.7 4.3 4.3 0 01-.66-2.67zm.84 0c-.07.74.06 1.49.38 2.16a1.08 1.08 0 001.86 0 6.29 6.29 0 000-4.32 1.1 1.1 0 00-.94-.53 1.04 1.04 0 00-.9.47 4.2 4.2 0 00-.4 2.22zm9.44 3.24h-.8v-5.16a4.17 4.17 0 01-.77.56 5.2 5.2 0 01-.85.41v-.78a4.8 4.8 0 001.2-.76c.28-.25.52-.54.7-.88h.52v6.6zm6.94 0h-.81v-5.16c-.24.22-.5.4-.77.56a4.81 4.81 0 01-.86.41v-.78a4.81 4.81 0 001.2-.76c.28-.25.53-.54.72-.88h.52v6.6zM64.14 97.66h-.81v-5.14a4.64 4.64 0 01-.77.55 4.96 4.96 0 01-.86.42v-.78c.43-.2.83-.47 1.2-.78.28-.25.53-.54.72-.88h.52v6.6zm3.66-3.24a6.43 6.43 0 01.23-1.89 2.45 2.45 0 01.73-1.1c.33-.26.76-.4 1.19-.37a1.76 1.76 0 011.59.83c.18.3.32.62.4.97.11.51.16 1.03.15 1.56a5.77 5.77 0 01-.24 1.86 2.3 2.3 0 01-.71 1.1 2.01 2.01 0 01-2.74-.3 4.39 4.39 0 01-.6-2.66zm.83 0a4.17 4.17 0 00.37 2.14 1.12 1.12 0 00.95.55 1.1 1.1 0 00.93-.55 4 4 0 00.38-2.14 4.1 4.1 0 00-.38-2.16 1.1 1.1 0 00-.95-.53 1.02 1.02 0 00-.89.46 4.3 4.3 0 00-.4 2.23zm6.2 0a6 6 0 01.23-1.89 2.42 2.42 0 01.7-1.1c.35-.26.77-.4 1.2-.37a1.83 1.83 0 011.6.83c.18.3.32.63.4.97.11.51.16 1.03.15 1.56a6.23 6.23 0 01-.24 1.86 2.4 2.4 0 01-.7 1.1c-.35.27-.78.4-1.21.39a1.8 1.8 0 01-1.5-.7 4.3 4.3 0 01-.63-2.65zm.82 0a4.1 4.1 0 00.38 2.14 1.1 1.1 0 00.93.55 1.1 1.1 0 00.94-.55 4.1 4.1 0 00.39-2.14 4.2 4.2 0 00-.36-2.16 1.15 1.15 0 00-.94-.53 1.02 1.02 0 00-.9.46 4.1 4.1 0 00-.44 2.23zm9.55 3.24h-.8v-5.14a4.64 4.64 0 01-.77.55 4.96 4.96 0 01-.86.42v-.78a4.97 4.97 0 001.19-.78 3.1 3.1 0 00.72-.88h.52v6.6zm3.67-3.24a5.95 5.95 0 01.24-1.89c.13-.42.38-.8.71-1.1.34-.26.76-.4 1.2-.37a1.77 1.77 0 011.59.83c.18.3.32.62.4.97.11.51.16 1.03.15 1.56a5.77 5.77 0 01-.2 1.86 2.3 2.3 0 01-.7 1.1c-.34.27-.76.4-1.2.39a1.75 1.75 0 01-1.48-.69 4.3 4.3 0 01-.71-2.66zm.83 0a4.17 4.17 0 00.37 2.14 1.12 1.12 0 00.94.55 1.1 1.1 0 00.93-.55 4 4 0 00.39-2.14 4.1 4.1 0 00-.39-2.16 1.1 1.1 0 00-.94-.53 1.02 1.02 0 00-.89.46 4.3 4.3 0 00-.4 2.23zm6.2 0a6.42 6.42 0 01.23-1.89 2.42 2.42 0 01.7-1.1c.35-.26.78-.4 1.21-.37.32-.01.64.06.92.21.27.14.5.36.67.62.18.3.32.63.4.97a6.74 6.74 0 01.14 1.56 5.83 5.83 0 01-.23 1.86 2.4 2.4 0 01-.7 1.1 2.01 2.01 0 01-2.74-.3 4.3 4.3 0 01-.6-2.66zm.81 0a4.1 4.1 0 00.36 2.14 1.1 1.1 0 00.94.55 1.1 1.1 0 00.93-.55 4.1 4.1 0 00.39-2.14 4.2 4.2 0 00-.39-2.16 1.12 1.12 0 00-1.44-.42 1.02 1.02 0 00-.39.35 4.27 4.27 0 00-.4 2.23zm6.2 0a5.93 5.93 0 01.24-1.89c.14-.42.38-.8.72-1.1.33-.26.76-.4 1.18-.37a1.83 1.83 0 011.59.83c.2.3.33.62.41.97a6 6 0 01.15 1.56 6.25 6.25 0 01-.23 1.86 2.4 2.4 0 01-.71 1.1c-.35.27-.77.4-1.2.39a1.76 1.76 0 01-1.5-.69 4.3 4.3 0 01-.65-2.66zm.83 0a4 4 0 00.39 2.14 1.09 1.09 0 00.92.55 1.12 1.12 0 00.95-.55 4.17 4.17 0 00.37-2.14 4.25 4.25 0 00-.37-2.16 1.15 1.15 0 00-.95-.53 1 1 0 00-.88.46 4.1 4.1 0 00-.43 2.23zm9.56 3.24h-.82v-5.14a3.72 3.72 0 01-.77.55c-.26.16-.55.3-.84.42v-.78c.43-.2.83-.47 1.19-.78a2.83 2.83 0 00.7-.88h.54v6.6z" fill="#E1E6E9"/><path d="M88.47 64.78A13.13 13.13 0 10101.6 77.9a13.13 13.13 0 00-3.84-9.28 13.11 13.11 0 00-9.29-3.84z" fill="#FFDA45"/><path d="M87.5 82.99l-4.77-4.77 1.94-1.93 2.83 2.83 5.95-5.95 1.94 1.93-7.89 7.89z" fill="#309"/></symbol><symbol id="icon-medal" viewBox="0 0 85 85"><g clip-path="url(#clip0)" fill="#FFDA45"><path d="M56.097 59.57l3.887-6.307L67 50.87l.777-7.368 5.277-5.195-2.509-6.974 2.51-6.974-5.278-5.195L67 11.797l-7.015-2.393-3.887-6.307-7.352.888L42.5 0l-6.245 3.986-7.352-.888-3.887 6.308L18 11.798l-.777 7.367-5.277 5.195 2.509 6.974-2.51 6.974 5.278 5.195.777 7.368 7.015 2.392 3.887 6.307 7.352-.887 6.245 3.986 6.245-3.986 7.352.887zM21.013 31.334c0-11.848 9.639-21.487 21.487-21.487 11.848 0 21.487 9.64 21.487 21.487 0 11.848-9.639 21.488-21.487 21.488-11.848 0-21.487-9.64-21.487-21.488z"/><path d="M42.5 14.83c-9.1 0-16.504 7.404-16.504 16.504 0 9.1 7.404 16.504 16.504 16.504 9.1 0 16.504-7.404 16.504-16.504 0-9.1-7.404-16.503-16.504-16.503zm-7.42 49.014L26.332 64.9l-4.62-7.498-1.571-.536-6.776 21.178 12.198-.67L35.108 85l5.616-17.553-5.645-3.603zm28.208-6.442L58.667 64.9l-8.746-1.056-5.644 3.603L49.893 85l9.543-7.627 12.198.671-6.776-21.178-1.57.536z"/></g></symbol><symbol id="icon-menu" viewBox="0 0 23 19"><path stroke="#309" stroke-width="3" d="M0 1.5h23M0 9.679h23M0 16.835h23"/></symbol><symbol id="icon-pig" viewBox="0 0 85 85"><path d="M62.588 2.656c-12.358 0-22.412 10.054-22.412 22.412 0 12.359 10.054 22.412 22.412 22.412C74.946 47.48 85 37.427 85 25.069 85 12.71 74.946 2.656 62.588 2.656zm0 34.864a7.461 7.461 0 01-6.883-4.563l4.587-1.94a2.49 2.49 0 102.296-3.458c-4.119 0-7.47-3.352-7.47-7.471s3.351-7.47 7.47-7.47a7.461 7.461 0 016.883 4.561l-4.587 1.941a2.489 2.489 0 00-2.296-1.522 2.493 2.493 0 00-2.49 2.49 2.493 2.493 0 002.49 2.49c4.119 0 7.47 3.352 7.47 7.47 0 4.12-3.351 7.472-7.47 7.472z" fill="#FFDA45"/><path d="M74.714 49.629a27.228 27.228 0 01-12.126 2.832c-14.264 0-26.018-10.96-27.282-24.902H30.05c-3.498 0-6.855.708-10.003 2.11a17.27 17.27 0 00-8.237-2.11H4.182L8.445 40.35a25.665 25.665 0 00-1.11 2.15H0v19.922h7.32a24.975 24.975 0 009.242 10.87 7.687 7.687 0 013.526 6.475v2.577h14.941v-4.98h14.942v4.98h14.941v-2.49c0-4.168 1.474-8.222 4.152-11.416a24.83 24.83 0 005.65-18.81zM25.068 47.48h-4.98V42.5h4.98v4.98z" fill="#FFDA45"/></symbol><symbol id="icon-question" viewBox="0 0 175 175"><path d="M87.5 0C39.25 0 0 39.25 0 87.5 0 135.749 39.25 175 87.5 175c48.249 0 87.5-39.251 87.5-87.5C175 39.25 135.749 0 87.5 0z" fill="#FFDA45"/><path d="M94.791 131.25a7.29 7.29 0 11-14.582 0 7.291 7.291 0 0114.582 0zm4.251-39.069a7.324 7.324 0 00-4.25 6.63v3.273a7.29 7.29 0 01-7.292 7.291 7.29 7.29 0 01-7.291-7.291V98.81c0-8.51 5.001-16.311 12.724-19.878 7.43-3.419 12.796-12.498 12.796-16.953 0-10.047-8.174-18.229-18.229-18.229s-18.229 8.182-18.229 18.229a7.291 7.291 0 01-7.292 7.292 7.29 7.29 0 01-7.291-7.292c0-18.09 14.72-32.813 32.812-32.813 18.091 0 32.812 14.723 32.812 32.813 0 9.852-8.546 24.333-21.27 30.202z" fill="#309"/></symbol><symbol id="icon-react" viewBox="0 0 175 175"><path d="M175 87.5c0 28.829-13.943 54.4-35.45 70.343A87.148 87.148 0 0187.5 175a87.556 87.556 0 01-21.536-2.671 87.086 87.086 0 01-30.518-14.49C13.94 141.896 0 116.325 0 87.5 0 39.175 39.175 0 87.5 0S175 39.175 175 87.5z" fill="#FFDA45"/><path d="M139.639 136.768c-.41-2.754-.953-5.589-1.625-8.489a135.075 135.075 0 00-2.064-7.779c-2.057-6.921-4.767-14.114-8.053-21.385a207.724 207.724 0 00-9.254-17.982 202.694 202.694 0 00-4.989-8.204 196.728 196.728 0 00-5.957-8.797c-4.65-6.482-9.525-12.428-14.493-17.671a129.05 129.05 0 00-5.704-5.672 106.427 106.427 0 00-6.543-5.657c-14.246-11.31-27-14.707-35.917-9.56-8.918 5.15-12.354 17.892-9.682 35.889.407 2.753.953 5.59 1.628 8.49a126.705 126.705 0 002.06 7.778c2.058 6.921 4.769 14.118 8.058 21.385a196.578 196.578 0 004.64 9.557 211.921 211.921 0 004.61 8.425c1.614 2.8 3.279 5.536 4.99 8.204a200.56 200.56 0 005.956 8.8c4.65 6.482 9.525 12.425 14.493 17.667a128.991 128.991 0 005.707 5.675 107.176 107.176 0 006.54 5.654c5.239 4.161 10.275 7.25 14.992 9.232a87.122 87.122 0 0030.518-14.486c1.257-5.792 1.303-12.888.089-21.074zm-8.021 19.775c-1.04 4.493-2.95 7.571-5.682 9.146-2.729 1.579-6.35 1.693-10.761.35-4.779-1.46-10.357-4.653-16.136-9.242a101.256 101.256 0 01-5.835-5.026 122.812 122.812 0 01-5.707-5.668c-3.25-3.439-6.465-7.203-9.6-11.242a180.913 180.913 0 01-6.165-8.44 198.609 198.609 0 01-8.414-13.346 198.182 198.182 0 01-7.35-13.96 177.676 177.676 0 01-4.225-9.558c-1.932-4.735-3.586-9.403-4.94-13.936a121.609 121.609 0 01-2.05-7.774 98.937 98.937 0 01-1.439-7.568c-1.085-7.296-1.06-13.725.064-18.593 1.04-4.493 2.954-7.571 5.682-9.146 1.475-.85 3.207-1.279 5.182-1.279 1.686 0 3.55.31 5.579.932 4.779 1.457 10.357 4.654 16.135 9.24a97.626 97.626 0 015.836 5.032c1.91 1.768 3.815 3.66 5.704 5.66 3.253 3.44 6.468 7.204 9.607 11.247a180.464 180.464 0 016.164 8.44 200.481 200.481 0 018.411 13.342 198.394 198.394 0 017.35 13.96 180.033 180.033 0 014.225 9.562c1.932 4.735 3.586 9.4 4.939 13.932a123.993 123.993 0 012.054 7.774 101.293 101.293 0 011.436 7.568c1.086 7.297 1.061 13.725-.064 18.593z" fill="#309"/><path d="M146.179 72.79a109.883 109.883 0 00-8.168-2.84c-2.5-.76-5.093-1.464-7.768-2.103-7.022-1.679-14.607-2.929-22.547-3.715a194.19 194.19 0 00-10.593-.76 208.098 208.098 0 00-19.21 0c-3.59.16-7.129.417-10.597.76-7.939.786-15.521 2.036-22.543 3.715a133.016 133.016 0 00-7.767 2.103c-2.85.868-5.579 1.818-8.168 2.84C11.9 79.467 2.578 88.817 2.578 99.113s9.322 19.647 26.24 26.329a110.08 110.08 0 008.164 2.839c2.5.761 5.093 1.464 7.768 2.1 7.022 1.682 14.607 2.929 22.55 3.718 3.468.343 7.007.596 10.597.761 3.164.146 6.371.217 9.603.217a208.4 208.4 0 009.6-.217c3.589-.165 7.125-.418 10.596-.761 7.94-.786 15.529-2.036 22.55-3.718a129.757 129.757 0 007.768-2.103 108.674 108.674 0 008.165-2.836c16.921-6.682 26.239-16.032 26.239-26.329 0-10.296-9.318-19.646-26.239-26.325zm13.114 35.817c-3.65 3.411-9.207 6.643-16.068 9.353a99.74 99.74 0 01-7.275 2.54c-2.49.768-5.079 1.471-7.757 2.107-4.604 1.096-9.472 1.996-14.54 2.693-3.378.468-6.846.843-10.386 1.118-5.132.411-10.407.618-15.767.618-5.361 0-10.636-.207-15.768-.614-3.54-.279-7.01-.654-10.39-1.122-5.067-.696-9.935-1.596-14.539-2.693a121.683 121.683 0 01-7.757-2.107 100.074 100.074 0 01-7.275-2.539c-6.86-2.711-12.418-5.943-16.068-9.354-3.371-3.146-5.082-6.339-5.082-9.493 0-3.153 1.71-6.346 5.082-9.492 3.65-3.411 9.207-6.643 16.068-9.354 2.31-.91 4.74-1.76 7.275-2.54a121.55 121.55 0 017.757-2.106c4.604-1.097 9.472-1.997 14.54-2.693 3.378-.468 6.85-.843 10.389-1.122a199.722 199.722 0 0115.768-.614c5.36 0 10.635.207 15.767.618 3.54.275 7.008.65 10.386 1.118 5.068.697 9.936 1.597 14.54 2.693 2.678.636 5.267 1.34 7.757 2.107a99.79 99.79 0 017.275 2.54c6.86 2.71 12.418 5.942 16.068 9.353 3.371 3.147 5.082 6.34 5.082 9.493 0 3.153-1.711 6.346-5.082 9.492z" fill="#309"/><path d="M129.957 25.572c-8.918-5.147-21.671-1.75-35.918 9.56A107.492 107.492 0 0087.5 40.79a129.153 129.153 0 00-5.707 5.675c-4.968 5.243-9.843 11.186-14.496 17.668a199.033 199.033 0 00-5.954 8.796 203.38 203.38 0 00-4.989 8.204 212.73 212.73 0 00-4.61 8.425 198.063 198.063 0 00-4.64 9.557c-3.29 7.271-6 14.464-8.057 21.385a130.537 130.537 0 00-2.065 7.782 107.433 107.433 0 00-1.624 8.486c-1.215 8.183-1.168 15.279.089 21.072a87.082 87.082 0 0030.518 14.489c4.718-1.982 9.753-5.071 14.993-9.232a107.364 107.364 0 006.543-5.654 129.257 129.257 0 005.703-5.671c4.965-5.243 9.843-11.19 14.493-17.672a199.699 199.699 0 005.957-8.8 203.346 203.346 0 004.99-8.203 206.258 206.258 0 004.61-8.422 199.448 199.448 0 004.643-9.56c3.286-7.268 5.997-14.465 8.054-21.386a131.83 131.83 0 002.06-7.779 107.09 107.09 0 001.629-8.489c2.671-17.996-.765-30.739-9.683-35.889zm-1.764 50.05c-1.354 4.532-3.007 9.196-4.939 13.931a179.82 179.82 0 01-4.225 9.561 198.308 198.308 0 01-7.35 13.961 201.546 201.546 0 01-8.411 13.343 181.752 181.752 0 01-6.168 8.442c-3.135 4.04-6.35 7.804-9.603 11.243-1.89 2-3.793 3.893-5.704 5.664a98.833 98.833 0 01-5.836 5.029c-5.778 4.589-11.357 7.782-16.135 9.243-4.41 1.343-8.032 1.228-10.76-.35-2.73-1.575-4.644-4.654-5.683-9.147-1.125-4.868-1.15-11.296-.064-18.592a100.64 100.64 0 011.436-7.568 124.053 124.053 0 012.053-7.775c1.353-4.532 3.007-9.2 4.94-13.936a178.19 178.19 0 014.224-9.557 198.268 198.268 0 017.35-13.96 198.763 198.763 0 018.415-13.347 178.932 178.932 0 016.16-8.436c3.14-4.042 6.354-7.806 9.604-11.246 1.892-2.004 3.8-3.897 5.707-5.664a99.986 99.986 0 015.835-5.029c5.779-4.585 11.358-7.782 16.136-9.24 2.029-.62 3.893-.931 5.578-.931 1.975 0 3.711.428 5.182 1.278 2.732 1.575 4.643 4.654 5.682 9.147 1.125 4.868 1.151 11.296.065 18.593a99.288 99.288 0 01-1.44 7.567 121.382 121.382 0 01-2.049 7.775z" fill="#309"/><path d="M87.5 115.075c8.815 0 15.961-7.146 15.961-15.96 0-8.816-7.146-15.961-15.961-15.961-8.815 0-15.96 7.145-15.96 15.96 0 8.815 7.145 15.961 15.96 15.961z" fill="#309"/></symbol></svg>